<svg width="18" height="21" viewBox="0 0 18 21" fill="none" xmlns="http://www.w3.org/2000/svg">
<path fill-rule="evenodd" clip-rule="evenodd" d="M12.8588 13.639C12.4349 13.1006 12.6657 12.305 13.312 12.0771L17.3193 10.6643C18.1356 10.3765 18.2255 9.25776 17.4656 8.84327L1.48058 0.124884C0.709309 -0.295777 -0.19067 0.411245 0.0354503 1.26018L4.69788 18.7646C4.91927 19.5957 6.01719 19.7781 6.4954 19.0631L8.86784 15.516C9.24554 14.9513 10.0643 14.9196 10.4847 15.4533L14.2468 20.2302C14.5866 20.6617 15.2108 20.7384 15.645 20.4019L16.4257 19.7968C16.8646 19.4566 16.9423 18.8239 16.5987 18.3877L12.8588 13.639Z" fill="#93C5FD"/>
</svg>
