<svg width="84" height="20" viewBox="0 0 84 20" fill="none" xmlns="http://www.w3.org/2000/svg">
<g>
<g clip-path="url(#clip0_493_4320)">
<path fill-rule="evenodd" clip-rule="evenodd" d="M16.0375 4.46999C17.1392 5.60333 17.6017 7.14999 17.7958 9.31749C18.3142 9.31749 18.7958 9.42999 19.1225 9.86249L19.7308 10.6658C19.9058 10.8975 20 11.1742 20 11.4617V13.645C20 13.9275 19.8558 14.2025 19.6225 14.3683C16.8658 16.335 13.4642 17.9167 10 17.9167C6.16667 17.9167 2.32917 15.7642 0.3775 14.3683C0.144167 14.2017 0.000833333 13.9267 0 13.645V11.4617C0 11.1742 0.0941667 10.8958 0.2675 10.665L0.875833 9.86249C1.2025 9.43166 1.6875 9.31749 2.20333 9.31749L2.2275 9.06999C2.43583 7.03166 2.9025 5.55916 3.9625 4.46999C6.01333 2.35333 8.72083 2.09416 9.9175 2.08333H10.0825C11.2792 2.09416 13.9867 2.35249 16.0375 4.46999ZM10.0008 8.07666C9.76417 8.07666 9.49 8.08999 9.19917 8.11833C9.09667 8.49083 8.945 8.82666 8.72417 9.04166C7.84917 9.89416 6.79417 10.025 6.22917 10.025C5.6975 10.025 5.14083 9.91666 4.68667 9.63833C4.25667 9.77583 3.84333 9.97416 3.81667 10.4683C3.78163 11.269 3.76412 12.0703 3.76417 12.8717L3.7625 13.2717C3.76083 13.7408 3.75833 14.21 3.75167 14.68C3.75333 14.9517 3.92167 15.205 4.17667 15.3175C6.245 16.2358 8.20167 16.6983 10.0017 16.6983C11.7983 16.6983 13.755 16.2358 15.8225 15.3175C15.9469 15.2628 16.053 15.1736 16.1283 15.0605C16.2036 14.9474 16.245 14.815 16.2475 14.6792C16.2725 13.2775 16.2525 11.8692 16.1842 10.4683C16.1583 9.97166 15.7442 9.77666 15.3125 9.63833C14.8575 9.91583 14.3025 10.025 13.7708 10.025C13.2067 10.025 12.1525 9.89416 11.2767 9.04166C11.055 8.82666 10.9042 8.49083 10.8017 8.11833C10.535 8.09166 10.2675 8.0775 10.0008 8.07666ZM7.89667 11.4208C8.34583 11.4208 8.71 11.7758 8.71 12.2125V13.6733C8.71 14.1108 8.34583 14.465 7.89667 14.465C7.68389 14.4677 7.47874 14.3858 7.32626 14.2374C7.17377 14.089 7.08641 13.8861 7.08333 13.6733V12.2133C7.08333 11.7758 7.4475 11.4208 7.89667 11.4208ZM12.0633 11.4208C12.5125 11.4208 12.8767 11.7758 12.8767 12.2125V13.6733C12.8767 14.1108 12.5125 14.465 12.0633 14.465C11.8506 14.4677 11.6454 14.3858 11.4929 14.2374C11.3404 14.089 11.2531 13.8861 11.25 13.6733V12.2133C11.25 11.7758 11.6142 11.4208 12.0633 11.4208ZM6.3625 4.23916C5.4875 4.32416 4.75 4.60416 4.375 4.99416C3.5625 5.85833 3.7375 8.05083 4.2 8.51416C4.5375 8.84249 5.175 9.06166 5.8625 9.06166H5.9375C6.47833 9.05083 7.425 8.91499 8.2125 8.13666C8.575 7.79499 8.8 6.94249 8.775 6.07833C8.75 5.38333 8.55 4.81166 8.25 4.56749C7.925 4.28749 7.1875 4.16583 6.3625 4.23916ZM11.75 4.56749C11.45 4.81083 11.25 5.38416 11.225 6.07833C11.2 6.94249 11.425 7.79499 11.7875 8.13666C12.5942 8.93416 13.5675 9.05666 14.1008 9.06166H14.1375C14.825 9.06166 15.4625 8.84249 15.8 8.51416C16.2625 8.05083 16.4375 5.85833 15.625 4.99416C15.25 4.60416 14.5125 4.32416 13.6375 4.23916C12.8125 4.16583 12.075 4.28749 11.75 4.56749ZM10 6.34583C9.8 6.34583 9.5625 6.35833 9.3 6.38249C9.325 6.51583 9.3375 6.6625 9.35 6.82083L9.34917 6.95333C9.34824 7.02291 9.34435 7.09241 9.3375 7.16166C9.525 7.14333 9.69167 7.13916 9.8475 7.13833H10.1525C10.3083 7.13833 10.475 7.14333 10.6625 7.16166C10.65 7.03999 10.65 6.93083 10.65 6.82083C10.6625 6.6625 10.675 6.51666 10.7 6.38249C10.4673 6.35971 10.2338 6.34748 10 6.34583Z" fill="white"/>
</g>
<g clip-path="url(#clip1_493_4320)">
<path fill-rule="evenodd" clip-rule="evenodd" d="M31.4825 15.9842C34.9908 15.9842 37.4633 14.025 37.885 10.9317H35.2591C34.8758 12.68 33.4375 13.7558 31.5208 13.7558C29.1441 13.7558 27.6291 12.2 27.6291 9.99084V7.70501C27.6291 5.30334 29.2016 3.84334 31.5591 3.84334C33.6675 3.84334 34.9525 4.97667 35.2591 6.64834H37.885C37.5783 3.59417 35.1825 1.59584 31.6358 1.59584C27.4375 1.59584 24.9841 4.32417 24.9841 8.81917C24.9841 13.2758 27.3991 15.9842 31.4825 15.9842ZM38.5933 10.7008C38.5933 13.9675 40.5483 15.9842 43.5766 15.9842C46.74 15.9842 48.58 13.8708 48.58 10.7008C48.58 7.32084 46.51 5.41917 43.5775 5.41917C40.5483 5.41917 38.5933 7.41584 38.5933 10.7008ZM41.0083 11.5275V9.93334C41.0083 8.35834 42.025 7.37834 43.5775 7.37834C45.0916 7.37834 46.1458 8.33834 46.1458 9.93334V11.5275C46.1458 13.1608 45.0725 14.025 43.5775 14.025C42.12 14.025 41.0083 13.1792 41.0083 11.5275ZM49.515 19H51.8925V13.89H52.0458C52.6016 15.1008 53.8091 15.8883 55.5341 15.8883C58.1033 15.8883 59.6941 14.005 59.6941 10.6442C59.6941 7.35917 58.1416 5.41917 55.5341 5.41917C53.9816 5.41917 52.6783 6.12917 52.0458 7.41667H51.8925L51.605 5.61084H49.515V19ZM54.6908 13.9475C53.0041 13.9475 51.8925 12.8525 51.8925 11.1625V10.1442C51.8925 8.47334 52.9841 7.35917 54.71 7.35917C56.3783 7.35917 57.2408 8.31917 57.2408 9.76001V11.5467C57.2408 13.0592 56.2741 13.9208 54.7633 13.9467L54.6908 13.9475ZM60.6075 4.17001H62.9658V1.59584H60.6075V4.17001ZM60.6075 15.7917H62.9658V5.61084H60.6075V15.7917ZM64.2225 15.7917H66.5808V1.59584H64.2225V15.7917ZM72.495 5.41917C75.4283 5.41917 77.4983 7.32084 77.4983 10.7017C77.4983 13.8708 75.6583 15.9842 72.495 15.9842C69.4666 15.9842 67.5116 13.9675 67.5116 10.7008C67.5116 7.41667 69.4666 5.41917 72.495 5.41917ZM81.5966 2.34501V5.61084H83.6666V7.55084H81.5966V13.89H83.6666V15.7917H81.175C79.7175 15.7917 79.2383 15.0233 79.2383 13.89V7.55084H77.4175V5.61084H79.2383V2.34501H81.5966ZM72.495 7.37834C70.9425 7.37834 69.9266 8.35751 69.9266 9.93334V11.5275C69.9266 13.1792 71.0383 14.025 72.495 14.025C73.9908 14.025 75.0641 13.16 75.0641 11.5275V9.93334C75.0641 8.33834 74.01 7.37834 72.495 7.37834Z" fill="white"/>
</g>
</g>
<defs>
<clipPath id="clip0_493_4320">
<rect width="20" height="20" fill="white"/>
</clipPath>
<clipPath id="clip1_493_4320">
<rect width="60" height="18" fill="white" transform="translate(24 1)"/>
</clipPath>
</defs>
</svg>
