<svg width="93" height="22" viewBox="0 0 93 22" fill="none" xmlns="http://www.w3.org/2000/svg">
<g clip-path="url(#clip0_493_4299)">
<path d="M9.63244 11L19.1733 16.5054C19.1147 16.6068 19.0297 16.6935 18.9244 16.7541L10.0068 21.8998C9.77525 22.0334 9.48963 22.0334 9.25808 21.8998L0.340435 16.7541C0.235186 16.6935 0.150162 16.6068 0.0915527 16.5054L9.63244 11Z" fill="#72716D"/>
<path d="M9.6321 0V11L0.0912154 16.5054C0.0326064 16.4039 0 16.2867 0 16.1655V5.83455C0 5.59158 0.1296 5.36758 0.340097 5.24589L9.25733 0.10024C9.37331 0.0334133 9.5025 0 9.63169 0H9.6321Z" fill="#55544F"/>
<path d="M19.1727 5.49464C19.1141 5.39316 19.029 5.30653 18.9238 5.24589L10.0061 0.10024C9.89058 0.0334133 9.76139 0 9.6322 0V11L19.1731 16.5054C19.2317 16.4039 19.2643 16.2867 19.2643 16.1655V5.83455C19.2643 5.71286 19.2321 5.59653 19.1731 5.49464H19.1727Z" fill="#43413C"/>
<path d="M18.5054 5.87994C18.5595 5.97317 18.5669 6.0928 18.5054 6.19923L9.84492 21.1907C9.78672 21.2922 9.63194 21.2505 9.63194 21.1338V11.255C9.63194 11.1762 9.61089 11.1003 9.57251 11.0338L18.505 5.87953H18.5054V5.87994Z" fill="#D6D5D2"/>
<path d="M18.5057 5.87992L9.57315 11.0342C9.53518 10.9682 9.47987 10.9121 9.41136 10.8725L0.85155 5.93313C0.750017 5.87497 0.791703 5.72028 0.908509 5.72028H18.2291C18.3521 5.72028 18.452 5.78669 18.5057 5.87992Z" fill="white"/>
<path d="M29.8179 5.72108H33.559V7.78075H29.9446C27.9948 7.78075 26.4731 8.90566 26.4731 11.2821C26.4731 13.6586 27.9948 14.7835 29.9446 14.7835H33.559V16.8432H29.6594C26.3938 16.8432 24.0796 14.9263 24.0796 11.2825C24.0796 7.63885 26.5523 5.72191 29.8179 5.72191V5.72108Z" fill="white"/>
<path d="M35.4615 5.72108H37.7758V12.5176C37.7758 14.2126 38.5526 15.005 40.3756 15.005C42.1987 15.005 42.9755 14.213 42.9755 12.5176V5.72108H45.2897V12.9928C45.2897 15.4642 43.7205 17.0329 40.3756 17.0329C37.0308 17.0329 35.4615 15.4485 35.4615 12.9771V5.72108Z" fill="white"/>
<path d="M57.3839 8.8739C57.3839 10.1098 56.6707 11.0602 55.7193 11.4723V11.5041C56.7182 11.6468 57.2254 12.3596 57.2411 13.3261L57.2886 16.8432H54.9743L54.9269 13.7065C54.9112 13.0093 54.4989 12.5815 53.6746 12.5815H49.8225V16.8432H47.5083V5.72108H53.8967C55.9893 5.72108 57.3839 6.78247 57.3839 8.8739ZM55.0536 9.19071C55.0536 8.24029 54.5463 7.71722 53.5954 7.71722H49.8225V10.6638H53.6268C54.4985 10.6638 55.0536 10.1411 55.0536 9.1903V9.19071Z" fill="white"/>
<path d="M66.1335 13.5951C66.1335 12.8031 65.6263 12.4702 64.8656 12.4071L62.2975 12.1694C60.0782 11.9636 58.9209 11.092 58.9209 8.98487C58.9209 6.87776 60.3477 5.72108 62.3925 5.72108H68.0672V7.71722H62.5509C61.7585 7.71722 61.2512 8.12932 61.2512 8.92134C61.2512 9.71336 61.7742 10.0937 62.567 10.1572L65.1826 10.3792C67.1641 10.5532 68.4638 11.4566 68.4638 13.5794C68.4638 15.7022 67.0849 16.8432 65.1351 16.8432H59.2065V14.8471H64.913C65.658 14.8471 66.1335 14.3401 66.1335 13.5955V13.5951Z" fill="white"/>
<path d="M75.2329 5.53094C78.7202 5.53094 80.9238 7.76469 80.9238 11.2661C80.9238 14.7675 78.6252 17.033 75.138 17.033C71.6508 17.033 69.4471 14.7675 69.4471 11.2661C69.4471 7.76469 71.7457 5.53094 75.2329 5.53094ZM78.5299 11.2822C78.5299 8.93745 77.1666 7.55926 75.185 7.55926C73.2035 7.55926 71.8402 8.93745 71.8402 11.2822C71.8402 13.6269 73.2035 15.0051 75.185 15.0051C77.1666 15.0051 78.5299 13.6269 78.5299 11.2822Z" fill="white"/>
<path d="M92.4003 8.8739C92.4003 10.1098 91.6871 11.0602 90.7357 11.4723V11.5041C91.7345 11.6468 92.2418 12.3596 92.2575 13.3261L92.3049 16.8432H89.9907L89.9432 13.7065C89.9275 13.0093 89.5152 12.5815 88.691 12.5815H84.8389V16.8432H82.5247V5.72108H88.913C91.0056 5.72108 92.4003 6.78247 92.4003 8.8739ZM90.0699 9.19071C90.0699 8.24029 89.5627 7.71722 88.6117 7.71722H84.8389V10.6638H88.6431C89.5148 10.6638 90.0699 10.1411 90.0699 9.1903V9.19071Z" fill="white"/>
</g>
<defs>
<clipPath id="clip0_493_4299">
<rect width="92.4" height="22" fill="white"/>
</clipPath>
</defs>
</svg>
